<svg width="42" height="70" viewBox="0 0 42 70" fill="none" xmlns="http://www.w3.org/2000/svg">
<path d="M41.132 11.7673H1.36005V69.0002H41.132V11.7673Z" stroke="#59738C" stroke-width="1.6" stroke-miterlimit="10" stroke-linecap="round" stroke-linejoin="round"/>
<path d="M25.6113 5.84993L33.3717 4.00684V11.7672" stroke="#59738C" stroke-width="1.6" stroke-miterlimit="10" stroke-linecap="round" stroke-linejoin="round"/>
<path d="M1.36005 11.7675L25.2232 5.94716L25.6112 5.85016V1.09692L1.36005 11.7675Z" stroke="#59738C" stroke-width="1.6" stroke-miterlimit="10" stroke-linecap="round" stroke-linejoin="round"/>
<path d="M20.761 17.5874H5.24023V39.8985H20.761V17.5874Z" stroke="#59738C" stroke-width="1.6" stroke-miterlimit="10" stroke-linecap="round" stroke-linejoin="round"/>
<path d="M37.2518 44.7488H24.6412V63.1797H37.2518V44.7488Z" stroke="#59738C" stroke-width="1.6" stroke-miterlimit="10" stroke-linecap="round" stroke-linejoin="round"/>
<path d="M25.6113 20.4976H37.2518" stroke="#59738C" stroke-width="1.6" stroke-miterlimit="10" stroke-linecap="round" stroke-linejoin="round"/>
<path d="M25.6113 24.8628H31.4316" stroke="#59738C" stroke-width="1.6" stroke-miterlimit="10" stroke-linecap="round" stroke-linejoin="round"/>
<path d="M25.6113 29.228H34.3417" stroke="#59738C" stroke-width="1.6" stroke-miterlimit="10" stroke-linecap="round" stroke-linejoin="round"/>
<path d="M5.24023 45.719H13.9707" stroke="#59738C" stroke-width="1.6" stroke-miterlimit="10" stroke-linecap="round" stroke-linejoin="round"/>
<path d="M5.24023 50.084C6.21028 50.084 16.8808 50.084 16.8808 50.084" stroke="#59738C" stroke-width="1.6" stroke-miterlimit="10" stroke-linecap="round" stroke-linejoin="round"/>
<path d="M5.24023 54.4492H11.0605" stroke="#59738C" stroke-width="1.6" stroke-miterlimit="10" stroke-linecap="round" stroke-linejoin="round"/>
<path d="M11.4489 17.5874V29.228H20.7614" stroke="#59738C" stroke-width="1.6" stroke-miterlimit="10" stroke-linecap="round" stroke-linejoin="round"/>
<path d="M5.24023 35.1455C5.24023 35.1455 9.12043 34.0784 13.9707 35.0485V39.8987" stroke="#59738C" stroke-width="1.6" stroke-miterlimit="10" stroke-linecap="round" stroke-linejoin="round"/>
</svg>
