<svg width="94" height="69" viewBox="0 0 94 69" fill="none" xmlns="http://www.w3.org/2000/svg">
<path fill-rule="evenodd" clip-rule="evenodd" d="M40.1486 1.23922C40.1793 0.687766 40.6513 0.265631 41.2027 0.296356L92.4032 3.1491C92.9547 3.17982 93.3768 3.65177 93.3461 4.20323L89.8191 67.5057C89.7884 68.0571 89.3164 68.4793 88.765 68.4486L37.5644 65.5958C37.013 65.5651 36.5908 65.0931 36.6216 64.5417L40.1486 1.23922ZM42.09 2.34899L38.6742 63.6544L87.8777 66.3959L91.2935 5.09046L42.09 2.34899Z" fill="#BBA390"/>
<path fill-rule="evenodd" clip-rule="evenodd" d="M37.1181 10.7593C37.2887 11.2846 37.0011 11.8487 36.4758 12.0193L23.0767 16.3696L33.3864 47.2987C33.5611 47.8227 33.2779 48.389 32.754 48.5637C32.23 48.7383 31.6637 48.4551 31.4891 47.9312L20.8606 16.046C20.7763 15.7931 20.7965 15.517 20.9167 15.279C21.0368 15.0411 21.247 14.8609 21.5005 14.7786L35.8582 10.117C36.3835 9.94647 36.9476 10.234 37.1181 10.7593Z" fill="#BBA390"/>
<path fill-rule="evenodd" clip-rule="evenodd" d="M18.8289 20.7816C19.0243 21.2982 18.764 21.8754 18.2475 22.0708L12.4249 24.2739L33.8738 63.3545C34.1395 63.8387 33.9624 64.4466 33.4783 64.7123C32.9941 64.978 32.3862 64.8009 32.1205 64.3168L10.1178 24.2271C9.97846 23.9733 9.95603 23.6715 10.0563 23.3998C10.1566 23.1281 10.3697 22.9132 10.6406 22.8107L17.5397 20.2002C18.0562 20.0048 18.6334 20.2651 18.8289 20.7816Z" fill="#BBA390"/>
<path fill-rule="evenodd" clip-rule="evenodd" d="M8.6383 30.9984C8.9593 31.4478 8.85521 32.0724 8.4058 32.3934L2.84016 36.3689L27.178 60.7067C27.5685 61.0972 27.5685 61.7304 27.178 62.1209C26.7875 62.5114 26.1543 62.5114 25.7638 62.1209L0.591237 36.9484C0.383381 36.7405 0.277506 36.4517 0.301751 36.1588C0.325997 35.8658 0.477907 35.5984 0.717106 35.4275L7.24332 30.7659C7.69274 30.4449 8.31729 30.549 8.6383 30.9984Z" fill="#BBA390"/>
<path fill-rule="evenodd" clip-rule="evenodd" d="M47.5628 8.89376C47.5935 8.34231 48.0655 7.92017 48.6169 7.9509L85.1089 9.98412C85.6604 10.0148 86.0825 10.4868 86.0518 11.0383L84.8277 33.0079C84.797 33.5594 84.325 33.9815 83.7736 33.9508L47.2816 31.9176C46.7301 31.8868 46.308 31.4149 46.3387 30.8634L47.5628 8.89376ZM49.5041 10.0035L48.3913 29.9762L82.8863 31.8982L83.9991 11.9255L49.5041 10.0035Z" fill="#BBA390"/>
<path fill-rule="evenodd" clip-rule="evenodd" d="M54.7471 39.7273C54.7773 39.1758 55.2489 38.7533 55.8003 38.7835L83.024 40.2752C83.5755 40.3054 83.998 40.777 83.9678 41.3284C83.9376 41.8799 83.466 42.3024 82.9146 42.2722L55.6909 40.7805C55.1395 40.7503 54.7169 40.2788 54.7471 39.7273Z" fill="#BBA390"/>
<path fill-rule="evenodd" clip-rule="evenodd" d="M54.1877 47.934C54.2167 47.3825 54.6873 46.959 55.2389 46.988L65.8673 47.5474C66.4188 47.5764 66.8424 48.047 66.8133 48.5985C66.7843 49.1501 66.3137 49.5736 65.7622 49.5446L55.1337 48.9852C54.5822 48.9562 54.1587 48.4856 54.1877 47.934Z" fill="#BBA390"/>
<path fill-rule="evenodd" clip-rule="evenodd" d="M53.4423 56.1315C53.476 55.5803 53.9503 55.1608 54.5015 55.1945L72.7749 56.3133C73.3262 56.3471 73.7457 56.8213 73.7119 57.3726C73.6782 57.9238 73.204 58.3433 72.6527 58.3096L54.3793 57.1908C53.828 57.157 53.4085 56.6828 53.4423 56.1315Z" fill="#BBA390"/>
<path fill-rule="evenodd" clip-rule="evenodd" d="M49.033 37.613C48.2465 37.613 47.6089 38.2506 47.6089 39.0371C47.6089 39.8235 48.2465 40.4611 49.033 40.4611C49.8194 40.4611 50.457 39.8235 50.457 39.0371C50.457 38.2506 49.8194 37.613 49.033 37.613ZM45.6089 39.0371C45.6089 37.146 47.1419 35.613 49.033 35.613C50.924 35.613 52.457 37.146 52.457 39.0371C52.457 40.9281 50.924 42.4611 49.033 42.4611C47.1419 42.4611 45.6089 40.9281 45.6089 39.0371Z" fill="#BBA390"/>
<path fill-rule="evenodd" clip-rule="evenodd" d="M48.4736 54.7666C47.6872 54.7666 47.0496 55.4042 47.0496 56.1906C47.0496 56.9771 47.6872 57.6147 48.4736 57.6147C49.2601 57.6147 49.8977 56.9771 49.8977 56.1906C49.8977 55.4042 49.2601 54.7666 48.4736 54.7666ZM45.0496 56.1906C45.0496 54.2996 46.5826 52.7666 48.4736 52.7666C50.3647 52.7666 51.8977 54.2996 51.8977 56.1906C51.8977 58.0817 50.3647 59.6147 48.4736 59.6147C46.5826 59.6147 45.0496 58.0817 45.0496 56.1906Z" fill="#BBA390"/>
<path fill-rule="evenodd" clip-rule="evenodd" d="M63.086 8.76434C63.637 8.80208 64.0531 9.27934 64.0153 9.83034L63.1512 22.4462L71.7732 23.0512L72.4612 11.0102C72.4927 10.4588 72.9653 10.0374 73.5167 10.0689C74.068 10.1004 74.4895 10.5729 74.458 11.1243L73.7121 24.1767C73.6969 24.4438 73.5753 24.6936 73.3745 24.8703C73.1737 25.047 72.9106 25.136 72.6437 25.1172L62.0153 24.3714C61.4651 24.3328 61.05 23.8558 61.0877 23.3055L62.02 9.69367C62.0577 9.14268 62.535 8.7266 63.086 8.76434Z" fill="#BBA390"/>
<path fill-rule="evenodd" clip-rule="evenodd" d="M48.2661 23.1416C47.7258 23.2562 47.3807 23.7871 47.4953 24.3273C47.6099 24.8675 48.1406 25.2125 48.6807 25.0981" fill="#BBA390"/>
</svg>
