<svg width="81" height="71" viewBox="0 0 81 71" fill="none" xmlns="http://www.w3.org/2000/svg">
<path fill-rule="evenodd" clip-rule="evenodd" d="M36.4574 13.1516C37.0065 13.2104 37.404 13.7032 37.3452 14.2524L34.6881 39.0618C34.6436 39.4765 34.3464 39.8202 33.9423 39.9239C33.5383 40.0276 33.1123 39.8695 32.8736 39.5274L20.8505 22.2918C20.5345 21.8388 20.6455 21.2154 21.0985 20.8995C21.5515 20.5835 22.1748 20.6945 22.4908 21.1475L32.9842 36.1902L35.3566 14.0394C35.4154 13.4902 35.9082 13.0927 36.4574 13.1516Z" fill="#BBA390"/>
<path fill-rule="evenodd" clip-rule="evenodd" d="M7.6613 28.0322C8.15909 27.793 8.75655 28.0026 8.99578 28.5004L24.4104 60.5756L44.0482 57.1356C44.5922 57.0403 45.1105 57.4041 45.2058 57.9481C45.3011 58.4921 44.9373 59.0103 44.3933 59.1056L24.0097 62.6763C23.5685 62.7536 23.1298 62.5281 22.9358 62.1245L7.19314 29.3667C6.95391 28.8689 7.16352 28.2714 7.6613 28.0322Z" fill="#BBA390"/>
<path fill-rule="evenodd" clip-rule="evenodd" d="M21.2671 20.7799C21.8176 20.7358 22.2997 21.1464 22.3438 21.6969L24.0298 42.7442C24.0628 43.1565 23.8387 43.5465 23.4658 43.7255C23.093 43.9045 22.6484 43.8355 22.3473 43.552L7.57046 29.6333C7.16844 29.2546 7.14951 28.6217 7.52818 28.2197C7.90686 27.8177 8.53974 27.7988 8.94176 28.1774L21.8289 40.3161L20.3501 21.8566C20.306 21.3061 20.7166 20.824 21.2671 20.7799Z" fill="#BBA390"/>
<path fill-rule="evenodd" clip-rule="evenodd" d="M23.6645 60.7061C24.2085 60.6108 24.7268 60.9746 24.8221 61.5186L25.7573 66.8572C25.8526 67.4012 25.4888 67.9194 24.9448 68.0147C24.4008 68.11 23.8826 67.7462 23.7873 67.2022L22.8521 61.8637C22.7568 61.3197 23.1205 60.8014 23.6645 60.7061Z" fill="#BBA390"/>
<path fill-rule="evenodd" clip-rule="evenodd" d="M26.3021 45.9445C26.799 45.7034 27.3972 45.9108 27.6383 46.4077L32.3356 56.0894C32.5767 56.5863 32.3693 57.1845 31.8724 57.4256C31.3755 57.6667 30.7773 57.4593 30.5362 56.9624L25.8389 47.2807C25.5978 46.7838 25.8052 46.1855 26.3021 45.9445Z" fill="#BBA390"/>
<path fill-rule="evenodd" clip-rule="evenodd" d="M35.7881 42.9132C36.3201 42.765 36.8715 43.0761 37.0198 43.6081L40.1642 54.8958C40.3124 55.4278 40.0013 55.9793 39.4693 56.1275C38.9372 56.2757 38.3858 55.9645 38.2376 55.4325L35.0931 44.1448C34.9449 43.6128 35.2561 43.0614 35.7881 42.9132Z" fill="#BBA390"/>
<path fill-rule="evenodd" clip-rule="evenodd" d="M20.281 16.6418C19.1274 16.8439 18.356 17.9429 18.5581 19.0965C18.7602 20.25 19.8592 21.0214 21.0127 20.8193C22.1663 20.6172 22.9376 19.5182 22.7356 18.3647C22.5335 17.2111 21.4345 16.4398 20.281 16.6418ZM16.5881 19.4415C16.1955 17.2 17.6943 15.0645 19.9359 14.6718C22.1774 14.2792 24.3129 15.778 24.7056 18.0196C25.0982 20.2612 23.5994 22.3966 21.3578 22.7893C19.1163 23.182 16.9808 21.6831 16.5881 19.4415Z" fill="#BBA390"/>
<path fill-rule="evenodd" clip-rule="evenodd" d="M6.24782 24.1023C5.09424 24.3044 4.3229 25.4033 4.52498 26.5569C4.72705 27.7105 5.82602 28.4818 6.97959 28.2797C8.13317 28.0777 8.90451 26.9787 8.70243 25.8251C8.50036 24.6715 7.40139 23.9002 6.24782 24.1023ZM2.55497 26.902C2.16231 24.6604 3.66115 22.5249 5.90272 22.1323C8.1443 21.7396 10.2798 23.2385 10.6724 25.48C11.0651 27.7216 9.56626 29.8571 7.32469 30.2497C5.08311 30.6424 2.94764 29.1436 2.55497 26.902Z" fill="#BBA390"/>
<path fill-rule="evenodd" clip-rule="evenodd" d="M35.6083 8.95531C34.4547 9.15739 33.6834 10.2564 33.8855 11.4099C34.0876 12.5635 35.1865 13.3348 36.3401 13.1328C37.4937 12.9307 38.265 11.8317 38.0629 10.6782C37.8609 9.52458 36.7619 8.75324 35.6083 8.95531ZM31.9155 11.755C31.5228 9.51344 33.0217 7.37797 35.2632 6.98531C37.5048 6.59264 39.6403 8.09148 40.0329 10.3331C40.4256 12.5746 38.9268 14.7101 36.6852 15.1028C34.4436 15.4954 32.3081 13.9966 31.9155 11.755Z" fill="#BBA390"/>
<path fill-rule="evenodd" clip-rule="evenodd" d="M23.7872 67.2016C23.6919 66.6576 24.0557 66.1393 24.5997 66.044L44.9834 62.4733C45.5274 62.378 46.0456 62.7418 46.1409 63.2858C46.2362 63.8298 45.8725 64.348 45.3285 64.4433L24.9448 68.014C24.4008 68.1093 23.8825 67.7456 23.7872 67.2016Z" fill="#BBA390"/>
<path fill-rule="evenodd" clip-rule="evenodd" d="M53.1147 15.2002C53.6475 15.0546 54.1974 15.3683 54.3431 15.9011L59.2271 33.7641L67.2207 17.9676C67.4701 17.4749 68.0717 17.2775 68.5645 17.5269C69.0573 17.7763 69.2546 18.3779 69.0052 18.8707L59.8394 36.9835C59.6527 37.3525 59.258 37.5685 58.8465 37.5269C58.435 37.4853 58.0916 37.1946 57.9825 36.7957L52.4139 16.4285C52.2682 15.8958 52.582 15.3459 53.1147 15.2002Z" fill="#BBA390"/>
<path fill-rule="evenodd" clip-rule="evenodd" d="M68.3758 17.3974C68.9253 17.4532 69.3255 17.9438 69.2697 18.4933L65.5993 54.6517C65.5541 55.0973 65.2181 55.4585 64.777 55.5357L44.3933 59.1064C43.8493 59.2017 43.3311 58.838 43.2358 58.2939C43.1405 57.7499 43.5042 57.2317 44.0482 57.1364L63.686 53.6964L67.2799 18.2913C67.3357 17.7419 67.8263 17.3416 68.3758 17.3974Z" fill="#BBA390"/>
<path fill-rule="evenodd" clip-rule="evenodd" d="M36.2363 13.1899C36.7327 12.9479 37.3313 13.1542 37.5733 13.6507L47.3463 33.7017L52.2528 15.9271C52.3997 15.3947 52.9504 15.0823 53.4828 15.2292C54.0152 15.3762 54.3276 15.9269 54.1807 16.4593L48.5703 36.7838C48.4597 37.1847 48.1125 37.4753 47.6984 37.5135C47.2842 37.5517 46.8897 37.3297 46.7075 36.9559L35.7755 14.5269C35.5335 14.0305 35.7398 13.4319 36.2363 13.1899Z" fill="#BBA390"/>
<path fill-rule="evenodd" clip-rule="evenodd" d="M64.4319 53.5652C64.9759 53.47 65.4942 53.8337 65.5894 54.3777L66.5246 59.7163C66.6199 60.2603 66.2562 60.7785 65.7122 60.8738C65.1682 60.9691 64.6499 60.6054 64.5546 60.0614L63.6194 54.7228C63.5242 54.1788 63.8879 53.6605 64.4319 53.5652Z" fill="#BBA390"/>
<path fill-rule="evenodd" clip-rule="evenodd" d="M56.9335 40.5783C57.4827 40.6361 57.8811 41.1283 57.8233 41.6775L56.6967 52.3795C56.6389 52.9287 56.1467 53.3271 55.5975 53.2693C55.0482 53.2114 54.6499 52.7193 54.7077 52.1701L55.8343 41.4681C55.8921 40.9189 56.3842 40.5205 56.9335 40.5783Z" fill="#BBA390"/>
<path fill-rule="evenodd" clip-rule="evenodd" d="M46.982 40.9522C47.5328 40.9107 48.0128 41.3236 48.0543 41.8743L48.9339 53.5587C48.9754 54.1094 48.5625 54.5895 48.0118 54.6309C47.4611 54.6724 46.981 54.2596 46.9396 53.7088L46.0599 42.0244C46.0185 41.4737 46.4313 40.9936 46.982 40.9522Z" fill="#BBA390"/>
<path fill-rule="evenodd" clip-rule="evenodd" d="M52.636 10.9746C51.4825 11.1767 50.7111 12.2756 50.9132 13.4292C51.1153 14.5828 52.2142 15.3541 53.3678 15.1521C54.5214 14.95 55.2927 13.851 55.0906 12.6974C54.8886 11.5439 53.7896 10.7725 52.636 10.9746ZM48.9432 13.7743C48.5505 11.5327 50.0494 9.39726 52.2909 9.0046C54.5325 8.61193 56.668 10.1108 57.0606 12.3523C57.4533 14.5939 55.9545 16.7294 53.7129 17.1221C51.4713 17.5147 49.3359 16.0159 48.9432 13.7743Z" fill="#BBA390"/>
<path fill-rule="evenodd" clip-rule="evenodd" d="M68.3695 13.2207C67.2159 13.4228 66.4446 14.5217 66.6467 15.6753C66.8487 16.8289 67.9477 17.6002 69.1013 17.3981C70.2548 17.1961 71.0262 16.0971 70.8241 14.9435C70.622 13.79 69.5231 13.0186 68.3695 13.2207ZM64.6766 16.0204C64.284 13.7788 65.7828 11.6434 68.0244 11.2507C70.266 10.858 72.4014 12.3569 72.7941 14.5984C73.1868 16.84 71.6879 18.9755 69.4464 19.3682C67.2048 19.7608 65.0693 18.262 64.6766 16.0204Z" fill="#BBA390"/>
<path fill-rule="evenodd" clip-rule="evenodd" d="M35.6083 8.95531C34.4547 9.15739 33.6834 10.2564 33.8855 11.4099C34.0876 12.5635 35.1865 13.3348 36.3401 13.1328C37.4937 12.9307 38.265 11.8317 38.0629 10.6782C37.8609 9.52458 36.7619 8.75324 35.6083 8.95531ZM31.9155 11.755C31.5228 9.51344 33.0217 7.37797 35.2632 6.98531C37.5048 6.59264 39.6403 8.09148 40.0329 10.3331C40.4256 12.5746 38.9268 14.7101 36.6852 15.1028C34.4436 15.4954 32.3081 13.9966 31.9155 11.755Z" fill="#BBA390"/>
<path fill-rule="evenodd" clip-rule="evenodd" d="M44.1708 63.6317C44.0755 63.0877 44.4393 62.5695 44.9833 62.4742L65.367 58.9035C65.911 58.8082 66.4292 59.172 66.5245 59.716C66.6198 60.26 66.2561 60.7782 65.7121 60.8735L45.3284 64.4442C44.7844 64.5395 44.2661 64.1757 44.1708 63.6317Z" fill="#BBA390"/>
</svg>
