<svg width="43" height="57" viewBox="0 0 43 57" fill="none" xmlns="http://www.w3.org/2000/svg">
<path d="M41.7168 1.35522H0.984283V56H41.7168V1.35522Z" stroke="#59738C" stroke-width="1.6" stroke-linecap="round" stroke-linejoin="round"/>
<path d="M35.0027 16.2766H7.69601V21.068H35.0027V16.2766Z" stroke="#59738C" stroke-width="1.6" stroke-linecap="round" stroke-linejoin="round"/>
<path d="M32.2071 41.0786H10.5725C10.4362 41.0799 10.305 41.0271 10.2076 40.9319C10.1102 40.8367 10.0544 40.7068 10.0526 40.5706V25.0881C10.0526 25.229 10.0919 26.843 11.73 30.2028C11.73 30.2028 12.9522 32.1678 11.3465 32.1678H32.727" stroke="#59738C" stroke-width="1.6" stroke-linecap="round" stroke-linejoin="round"/>
<path d="M11.3465 32.1678C12.9638 32.1678 11.73 30.2028 11.73 30.2028C10.0919 26.8453 10.0619 25.229 10.0619 25.0881" stroke="#59738C" stroke-width="1.6" stroke-linecap="round" stroke-linejoin="round"/>
<path d="M11.9103 36.6221C12.772 36.6221 11.9588 35.1627 11.9588 35.1627C10.3992 33.1492 10.0642 32.1609 10.0642 32.1609H32.7386" stroke="#59738C" stroke-width="1.6" stroke-linecap="round" stroke-linejoin="round"/>
<path d="M32.727 36.6221H10.0619C10.0619 36.6221 10.3969 37.6057 11.9564 39.6239C11.9564 39.6239 12.7697 41.0855 11.9079 41.0855" stroke="#59738C" stroke-width="1.6" stroke-linecap="round" stroke-linejoin="round"/>
<path d="M33.8176 32.168H33.6697H32.7271H32.2234" stroke="#59738C" stroke-width="1.6" stroke-linecap="round" stroke-linejoin="round"/>
<path d="M32.7271 32.168C33.0159 32.6529 33.4387 33.7174 34.1133 35.1698C34.1133 35.1698 34.9266 36.6291 34.0648 36.6291" stroke="#59738C" stroke-width="1.6" stroke-linecap="round" stroke-linejoin="round"/>
<path d="M31.7036 41.0785H34.0694C34.9312 41.0785 34.1179 39.6168 34.1179 39.6168C33.5958 38.4115 33.0159 37.1091 32.7317 36.615" stroke="#59738C" stroke-width="1.6" stroke-linecap="round" stroke-linejoin="round"/>
<path d="M32.2234 36.6221H32.7271H34.0694" stroke="#59738C" stroke-width="1.6" stroke-linecap="round" stroke-linejoin="round"/>
<path d="M10.0526 21.0679V25.088" stroke="#59738C" stroke-width="1.6" stroke-linecap="round" stroke-linejoin="round"/>
<path d="M32.3757 21.0728V25.0813C32.3757 25.0813 32.3365 26.6862 34.0531 30.2075C34.0531 30.2075 35.2753 32.1726 33.6696 32.1726" stroke="#59738C" stroke-width="1.6" stroke-linecap="round" stroke-linejoin="round"/>
<path d="M29.5941 21.0679V35.1487" stroke="#59738C" stroke-width="1.6" stroke-linecap="round" stroke-linejoin="round"/>
<path d="M30.3959 35.9479C30.3959 35.5066 30.038 35.1489 29.5965 35.1489C29.155 35.1489 28.7971 35.5066 28.7971 35.9479V36.8577C28.7971 37.2989 29.155 37.6566 29.5965 37.6566C30.038 37.6566 30.3959 37.2989 30.3959 36.8577V35.9479Z" fill="white" stroke="#59738C" stroke-width="1.6" stroke-linecap="round" stroke-linejoin="round"/>
<path d="M41.7168 8.95908L37.9116 5.156L34.1086 1.35522H41.7168V8.95908Z" stroke="#59738C" stroke-width="1.6" stroke-linecap="round" stroke-linejoin="round"/>
</svg>
