<svg xmlns="http://www.w3.org/2000/svg" width="90" height="16" fill="none"><path fill="#2B8CFC" d="M20.71 11.607c0-1.987 1.495-3.576 3.464-3.576h.157a3.546 3.546 0 0 1 3.7 3.417c.08 1.987-1.417 3.657-3.385 3.736h-.315a3.464 3.464 0 0 1-3.622-3.338v-.239Zm5.826 0c0-1.271-.945-2.225-2.205-2.225-1.26 0-2.204.954-2.204 2.225 0 1.272.944 2.226 2.204 2.226a2.08 2.08 0 0 0 2.205-2.067c.078-.08.078-.08 0-.159Z"/><path fill="#fff" d="m44.488 14.787-3.15-4.53c-.394 0-.709.079-1.102.079h-3.78v4.45h-1.495V.72h5.196c3.543 0 5.67 1.828 5.67 4.848.078 2.067-1.26 3.895-3.15 4.45l3.385 4.85h-1.574v-.08Zm-.08-9.3c0-2.225-1.495-3.497-4.25-3.497h-3.702v7.074h3.701c2.756-.08 4.252-1.351 4.252-3.576ZM55.826 1.99h-4.882V.72h11.26V1.99h-4.882v12.797h-1.496V1.99ZM68.03.719h1.496v14.068H68.03V.719Z"/><path fill="#2B8CFC" d="M23.622.719h1.418v7.71h-1.418V.718Z"/><path fill="#fff" d="M89.997.719v14.068h-1.18L79.761 3.342v11.445h-1.496V.719h1.18l8.977 11.445V.719h1.574ZM12.678 10.177c-.945 2.146-3.07 3.417-5.354 3.338a5.671 5.671 0 0 1-5.827-5.564v-.318c-.078-3.179 2.441-5.802 5.59-5.802h.316c2.283-.08 4.409 1.272 5.354 3.339l1.338-.636C12.757 2.07 10.158.48 7.324.56 3.466.4.159 3.42.001 7.316v.397c-.078 3.894 2.992 7.153 6.93 7.233h.393c2.835.08 5.433-1.51 6.693-4.054l-1.339-.715Z"/></svg>