<svg width="56" height="55" viewBox="0 0 56 55" fill="none" xmlns="http://www.w3.org/2000/svg">
<path d="M1.71875 1.67188H54.2812V8.79688H1.71875V1.67188Z" fill="#12253B"/>
<path d="M36.1562 24.8281C36.637 24.8281 37.098 25.0158 37.4379 25.3498C37.7778 25.6839 37.9688 26.137 37.9688 26.6094V30.1719H50.6562V12.3594H5.34375V30.1719H34.3438V26.6094C34.3438 26.137 34.5347 25.6839 34.8746 25.3498C35.2145 25.0158 35.6755 24.8281 36.1562 24.8281ZM25.2812 24.8281V17.7031L32.5312 21.2656L25.2812 24.8281Z" fill="#12253B"/>
<path d="M48.8438 35.5156V46.9869C48.8349 47.3257 48.7772 47.6615 48.6725 47.9844H54.2812V33.7344H47.0312C47.512 33.7344 47.973 33.922 48.3129 34.2561C48.6528 34.5901 48.8438 35.0432 48.8438 35.5156Z" fill="#12253B"/>
<path d="M27.5469 38.688C27.8247 38.4088 28.1614 38.1928 28.5333 38.0552C28.9053 37.9177 29.3034 37.8619 29.6996 37.8919C30.0958 37.9218 30.4805 38.0368 30.8266 38.2287C31.1728 38.4206 31.4719 38.6847 31.7029 39.0024L34.3438 42.6406V33.7344H1.71875V47.9844H33.0995L27.101 39.1325L27.5469 38.688Z" fill="#12253B"/>
<path d="M32.9363 20.4684L25.6863 16.9059C25.5481 16.8381 25.3946 16.8061 25.2402 16.8129C25.0859 16.8198 24.9359 16.8653 24.8045 16.9452C24.6731 17.0251 24.5647 17.1366 24.4895 17.2693C24.4144 17.4019 24.3749 17.5512 24.375 17.7031V24.8281C24.3749 24.9799 24.4144 25.1292 24.4895 25.2619C24.5647 25.3945 24.6731 25.506 24.8045 25.5859C24.9359 25.6658 25.0859 25.7113 25.2402 25.7182C25.3946 25.725 25.5481 25.693 25.6863 25.6252L32.9363 22.0627C33.0871 21.9888 33.214 21.8751 33.3027 21.7343C33.3914 21.5935 33.4383 21.4311 33.4383 21.2656C33.4383 21.1 33.3914 20.9376 33.3027 20.7968C33.214 20.656 33.0871 20.5423 32.9363 20.4684ZM26.1875 23.387V19.1441L30.5049 21.2656L26.1875 23.387Z" fill="#59738C"/>
<path d="M8.96875 36.4062H7.15625C6.9159 36.4062 6.68539 36.5001 6.51543 36.6671C6.34548 36.8341 6.25 37.0607 6.25 37.2969C6.25 37.5331 6.34548 37.7596 6.51543 37.9266C6.68539 38.0937 6.9159 38.1875 7.15625 38.1875H8.96875C9.2091 38.1875 9.43961 38.0937 9.60957 37.9266C9.77952 37.7596 9.875 37.5331 9.875 37.2969C9.875 37.0607 9.77952 36.8341 9.60957 36.6671C9.43961 36.5001 9.2091 36.4062 8.96875 36.4062Z" fill="#59738C"/>
<path d="M23.4688 36.4062H12.5938C12.3534 36.4062 12.1229 36.5001 11.9529 36.6671C11.783 36.8341 11.6875 37.0607 11.6875 37.2969C11.6875 37.5331 11.783 37.7596 11.9529 37.9266C12.1229 38.0937 12.3534 38.1875 12.5938 38.1875H23.4688C23.7091 38.1875 23.9396 38.0937 24.1096 37.9266C24.2795 37.7596 24.375 37.5331 24.375 37.2969C24.375 37.0607 24.2795 36.8341 24.1096 36.6671C23.9396 36.5001 23.7091 36.4062 23.4688 36.4062Z" fill="#59738C"/>
<path d="M8.96875 39.9688H7.15625C6.9159 39.9688 6.68539 40.0626 6.51543 40.2296C6.34548 40.3966 6.25 40.6232 6.25 40.8594C6.25 41.0956 6.34548 41.3221 6.51543 41.4891C6.68539 41.6562 6.9159 41.75 7.15625 41.75H8.96875C9.2091 41.75 9.43961 41.6562 9.60957 41.4891C9.77952 41.3221 9.875 41.0956 9.875 40.8594C9.875 40.6232 9.77952 40.3966 9.60957 40.2296C9.43961 40.0626 9.2091 39.9688 8.96875 39.9688Z" fill="#59738C"/>
<path d="M23.4688 39.9688H12.5938C12.3534 39.9688 12.1229 40.0626 11.9529 40.2296C11.783 40.3966 11.6875 40.6232 11.6875 40.8594C11.6875 41.0956 11.783 41.3221 11.9529 41.4891C12.1229 41.6562 12.3534 41.75 12.5938 41.75H23.4688C23.7091 41.75 23.9396 41.6562 24.1096 41.4891C24.2795 41.3221 24.375 41.0956 24.375 40.8594C24.375 40.6232 24.2795 40.3966 24.1096 40.2296C23.9396 40.0626 23.7091 39.9688 23.4688 39.9688Z" fill="#59738C"/>
<path d="M8.96875 43.5312H7.15625C6.9159 43.5312 6.68539 43.6251 6.51543 43.7921C6.34548 43.9591 6.25 44.1857 6.25 44.4219C6.25 44.6581 6.34548 44.8846 6.51543 45.0516C6.68539 45.2187 6.9159 45.3125 7.15625 45.3125H8.96875C9.2091 45.3125 9.43961 45.2187 9.60957 45.0516C9.77952 44.8846 9.875 44.6581 9.875 44.4219C9.875 44.1857 9.77952 43.9591 9.60957 43.7921C9.43961 43.6251 9.2091 43.5312 8.96875 43.5312Z" fill="#59738C"/>
<path d="M23.4688 43.5312H12.5938C12.3534 43.5312 12.1229 43.6251 11.9529 43.7921C11.783 43.9591 11.6875 44.1857 11.6875 44.4219C11.6875 44.6581 11.783 44.8846 11.9529 45.0516C12.1229 45.2187 12.3534 45.3125 12.5938 45.3125H23.4688C23.7091 45.3125 23.9396 45.2187 24.1096 45.0516C24.2795 44.8846 24.375 44.6581 24.375 44.4219C24.375 44.1857 24.2795 43.9591 24.1096 43.7921C23.9396 43.6251 23.7091 43.5312 23.4688 43.5312Z" fill="#59738C"/>
<path d="M54.2812 0.78125H1.71875C1.4784 0.78125 1.24789 0.875083 1.07793 1.04211C0.90798 1.20913 0.8125 1.43567 0.8125 1.67188V47.9844C0.8125 48.2206 0.90798 48.4471 1.07793 48.6141C1.24789 48.7812 1.4784 48.875 1.71875 48.875H32.5312C32.5563 48.8733 32.5808 48.8673 32.6038 48.8572L32.9844 49.4183C33.2817 49.8558 33.4394 50.3706 33.4375 50.8967V53.3281C33.4375 53.5643 33.533 53.7909 33.7029 53.9579C33.8729 54.1249 34.1034 54.2188 34.3438 54.2188H47.0312C47.2716 54.2188 47.5021 54.1249 47.6721 53.9579C47.842 53.7909 47.9375 53.5643 47.9375 53.3281V51.7339C47.9343 51.2076 48.0922 50.6925 48.3906 50.2555L48.9978 49.3738C49.1003 49.2124 49.194 49.046 49.2788 48.875H54.2812C54.5216 48.875 54.7521 48.7812 54.9221 48.6141C55.092 48.4471 55.1875 48.2206 55.1875 47.9844V1.67188C55.1875 1.43567 55.092 1.20913 54.9221 1.04211C54.7521 0.875083 54.5216 0.78125 54.2812 0.78125ZM47.9375 46.9602C47.9262 47.4676 47.7691 47.9617 47.4844 48.3852L46.8862 49.2669C46.3885 49.9965 46.1235 50.8555 46.125 51.7339V52.4375H35.25V50.8967C35.2515 50.0183 34.9865 49.1593 34.4888 48.4297L28.2628 39.2384C28.4473 39.0749 28.6639 38.9503 28.8992 38.8722C29.1346 38.7941 29.3837 38.7641 29.6312 38.7842C29.8953 38.802 30.152 38.8777 30.3825 39.0056C30.613 39.1335 30.8115 39.3104 30.9634 39.5234L33.6097 43.1572C33.7192 43.3133 33.8777 43.43 34.0609 43.4895C34.2441 43.549 34.4421 43.548 34.6247 43.4867C34.8064 43.4285 34.9647 43.3153 35.077 43.1634C35.1893 43.0114 35.2499 42.8284 35.25 42.6406V26.6094C35.25 26.3732 35.3455 26.1466 35.5154 25.9796C35.6854 25.8126 35.9159 25.7188 36.1562 25.7188C36.3966 25.7188 36.6271 25.8126 36.7971 25.9796C36.967 26.1466 37.0625 26.3732 37.0625 26.6094V37.2969C37.0625 37.5331 37.158 37.7596 37.3279 37.9266C37.4979 38.0937 37.7284 38.1875 37.9688 38.1875C38.2091 38.1875 38.4396 38.0937 38.6096 37.9266C38.7795 37.7596 38.875 37.5331 38.875 37.2969V35.5156C38.875 35.2794 38.9705 35.0529 39.1404 34.8859C39.3104 34.7188 39.5409 34.625 39.7812 34.625C40.0216 34.625 40.2521 34.7188 40.4221 34.8859C40.592 35.0529 40.6875 35.2794 40.6875 35.5156V37.2969C40.6875 37.5331 40.783 37.7596 40.9529 37.9266C41.1229 38.0937 41.3534 38.1875 41.5938 38.1875C41.8341 38.1875 42.0646 38.0937 42.2346 37.9266C42.4045 37.7596 42.5 37.5331 42.5 37.2969V35.5156C42.5 35.2794 42.5955 35.0529 42.7654 34.8859C42.9354 34.7188 43.1659 34.625 43.4062 34.625C43.6466 34.625 43.8771 34.7188 44.0471 34.8859C44.217 35.0529 44.3125 35.2794 44.3125 35.5156V37.2969C44.3125 37.5331 44.408 37.7596 44.5779 37.9266C44.7479 38.0937 44.9784 38.1875 45.2188 38.1875C45.4591 38.1875 45.6896 38.0937 45.8596 37.9266C46.0295 37.7596 46.125 37.5331 46.125 37.2969V35.5156C46.125 35.2794 46.2205 35.0529 46.3904 34.8859C46.5604 34.7188 46.7909 34.625 47.0312 34.625C47.2716 34.625 47.5021 34.7188 47.6721 34.8859C47.842 35.0529 47.9375 35.2794 47.9375 35.5156V46.9602ZM53.375 32.8438H51.5625C51.3221 32.8438 51.0916 32.9376 50.9217 33.1046C50.7517 33.2716 50.6562 33.4982 50.6562 33.7344C50.6562 33.9706 50.7517 34.1971 50.9217 34.3641C51.0916 34.5312 51.3221 34.625 51.5625 34.625H53.375V47.0938H49.7409C49.7409 47.0581 49.75 47.0225 49.75 46.9869V35.5156C49.7478 34.8077 49.4607 34.1293 48.9513 33.6287C48.4419 33.128 47.7516 32.8459 47.0312 32.8438C46.3601 32.8455 45.7138 33.0932 45.2188 33.5384C44.7246 33.0917 44.0777 32.8437 43.4062 32.8437C42.7348 32.8437 42.0879 33.0917 41.5938 33.5384C41.0987 33.0932 40.4524 32.8455 39.7812 32.8438C39.4721 32.8462 39.1656 32.9004 38.875 33.0041V26.6094C38.875 25.9007 38.5886 25.2211 38.0787 24.7201C37.5688 24.219 36.8773 23.9375 36.1562 23.9375C35.4352 23.9375 34.7437 24.219 34.2338 24.7201C33.7239 25.2211 33.4375 25.9007 33.4375 26.6094V39.8619L32.4406 38.4814C32.1316 38.0583 31.7321 37.7067 31.2702 37.4513C30.8083 37.196 30.2951 37.043 29.7667 37.0031C29.2382 36.9632 28.7073 37.0374 28.2111 37.2205C27.715 37.4035 27.2655 37.691 26.8944 38.0628L26.4503 38.5081C26.3069 38.6546 26.2188 38.845 26.2007 39.0475C26.1825 39.25 26.2355 39.4525 26.3506 39.6214L31.4075 47.0938H2.625V34.625H30.7188C30.9591 34.625 31.1896 34.5312 31.3596 34.3641C31.5295 34.1971 31.625 33.9706 31.625 33.7344C31.625 33.4982 31.5295 33.2716 31.3596 33.1046C31.1896 32.9376 30.9591 32.8438 30.7188 32.8438H2.625V9.6875H53.375V32.8438ZM53.375 7.90625H2.625V2.5625H53.375V7.90625Z" fill="#59738C"/>
<path d="M6.25 4.34375H5.34375C5.1034 4.34375 4.87289 4.43758 4.70293 4.60461C4.53298 4.77163 4.4375 4.99817 4.4375 5.23438C4.4375 5.47058 4.53298 5.69712 4.70293 5.86414C4.87289 6.03117 5.1034 6.125 5.34375 6.125H6.25C6.49035 6.125 6.72086 6.03117 6.89082 5.86414C7.06077 5.69712 7.15625 5.47058 7.15625 5.23438C7.15625 4.99817 7.06077 4.77163 6.89082 4.60461C6.72086 4.43758 6.49035 4.34375 6.25 4.34375Z" fill="#59738C"/>
<path d="M10.7812 4.34375H9.875C9.63465 4.34375 9.40414 4.43758 9.23418 4.60461C9.06423 4.77163 8.96875 4.99817 8.96875 5.23438C8.96875 5.47058 9.06423 5.69712 9.23418 5.86414C9.40414 6.03117 9.63465 6.125 9.875 6.125H10.7812C11.0216 6.125 11.2521 6.03117 11.4221 5.86414C11.592 5.69712 11.6875 5.47058 11.6875 5.23438C11.6875 4.99817 11.592 4.77163 11.4221 4.60461C11.2521 4.43758 11.0216 4.34375 10.7812 4.34375Z" fill="#59738C"/>
<path d="M15.3125 4.34375H14.4062C14.1659 4.34375 13.9354 4.43758 13.7654 4.60461C13.5955 4.77163 13.5 4.99817 13.5 5.23438C13.5 5.47058 13.5955 5.69712 13.7654 5.86414C13.9354 6.03117 14.1659 6.125 14.4062 6.125H15.3125C15.5529 6.125 15.7834 6.03117 15.9533 5.86414C16.1233 5.69712 16.2188 5.47058 16.2188 5.23438C16.2188 4.99817 16.1233 4.77163 15.9533 4.60461C15.7834 4.43758 15.5529 4.34375 15.3125 4.34375Z" fill="#59738C"/>
<path d="M51.5625 30.1719V12.3594C51.5625 12.1232 51.467 11.8966 51.2971 11.7296C51.1271 11.5626 50.8966 11.4688 50.6562 11.4688H5.34375C5.1034 11.4688 4.87289 11.5626 4.70293 11.7296C4.53298 11.8966 4.4375 12.1232 4.4375 12.3594V30.1719C4.4375 30.4081 4.53298 30.6346 4.70293 30.8016C4.87289 30.9687 5.1034 31.0625 5.34375 31.0625H30.7188C30.9591 31.0625 31.1896 30.9687 31.3596 30.8016C31.5295 30.6346 31.625 30.4081 31.625 30.1719C31.625 29.9357 31.5295 29.7091 31.3596 29.5421C31.1896 29.3751 30.9591 29.2812 30.7188 29.2812H6.25V13.25H49.75V29.2812H41.5938C41.3534 29.2812 41.1229 29.3751 40.9529 29.5421C40.783 29.7091 40.6875 29.9357 40.6875 30.1719C40.6875 30.4081 40.783 30.6346 40.9529 30.8016C41.1229 30.9687 41.3534 31.0625 41.5938 31.0625H50.6562C50.8966 31.0625 51.1271 30.9687 51.2971 30.8016C51.467 30.6346 51.5625 30.4081 51.5625 30.1719Z" fill="#59738C"/>
</svg>
