<svg width="43" height="70" viewBox="0 0 43 70" fill="none" xmlns="http://www.w3.org/2000/svg">
<path d="M36.9547 38.8165C37.4277 38.3434 38.0785 38.4553 38.6737 38.1532C41.4518 36.7436 40.2612 35.6361 40.2612 35.6361C34.9036 35.6361 35.3004 29.4942 35.3004 29.4942V18.1167V16.8077V14.6933C35.3004 10.8673 33.8122 7.44392 31.3318 5.02745C28.8514 2.51029 25.4781 1 21.7079 1C14.1676 1 8.21465 7.44392 8.21465 15.0961V16.0023V18.8215V29.0915C8.21465 33.6224 4.44447 34.0251 3.84918 35.7368C3.3531 37.1464 6.6772 37.3972 7.1502 38.3434" stroke="#59738C" stroke-width="1.6" stroke-miterlimit="10" stroke-linecap="round" stroke-linejoin="round"/>
<path d="M21.9069 34.8306C19.625 34.8306 18.4344 33.2196 18.4344 33.2196C18.4344 33.2196 16.1524 30.9038 13.7713 28.9908C11.3901 27.0777 11.6877 22.5468 11.6877 22.5468C7.91756 21.2379 7.61992 15.4988 9.70344 14.4919C11.787 13.4851 12.4815 17.0091 12.4815 17.0091C12.4815 17.0091 19.625 15.7002 21.1132 11.27C21.1132 11.27 21.2124 9.75969 23.6928 10.4645C26.1732 11.1693 31.63 12.7803 31.4316 17.0091C31.4316 17.0091 32.1261 13.5858 34.2096 14.4919C36.2931 15.3981 35.9955 21.2379 32.2253 22.5468C32.2253 22.5468 32.523 27.0777 30.1418 28.9908C27.7606 30.9038 25.4787 33.2196 25.4787 33.2196C25.4787 33.2196 24.0897 34.8306 21.9069 34.8306Z" stroke="#59738C" stroke-width="1.6" stroke-miterlimit="10" stroke-linecap="round" stroke-linejoin="round"/>
<path d="M16.549 36.643V31.6086" stroke="#59738C" stroke-width="1.6" stroke-miterlimit="10" stroke-linecap="round" stroke-linejoin="round"/>
<path d="M19.2281 44.0938L16.5493 36.6431C16.5493 36.6431 14.069 37.2472 12.8784 38.4554C12.5807 38.7575 12.3823 39.0595 12.1839 39.3616C11.5886 41.0733 11.1917 43.1877 11.1917 43.1877C11.1917 43.1877 11.8423 44.1945 14.7195 44.0938" stroke="#59738C" stroke-width="1.6" stroke-miterlimit="10" stroke-linecap="round" stroke-linejoin="round"/>
<path d="M27.066 36.643V31.6086" stroke="#59738C" stroke-width="1.6" stroke-miterlimit="10" stroke-linecap="round" stroke-linejoin="round"/>
<path d="M29.0504 44.0937C31.9277 44.1944 32.4238 43.0868 32.4238 43.0868C32.4238 43.0868 32.0269 41.0731 31.4316 39.2608C31.3324 38.9587 31.134 38.6566 30.7371 38.3546C29.4473 37.1464 27.0661 36.5422 27.0661 36.5422L24.3873 43.993" stroke="#59738C" stroke-width="1.6" stroke-miterlimit="10" stroke-linecap="round" stroke-linejoin="round"/>
<path d="M4.31161 62.8213H1V47.3156C1 43.6909 3.18274 40.5696 6.25841 39.16C7.34978 38.6566 8.54036 38.3545 9.83016 38.3545H12.8272" stroke="#59738C" stroke-width="1.6" stroke-miterlimit="10" stroke-linecap="round" stroke-linejoin="round"/>
<path d="M39.1706 44.0938H4.54446V65.7413H39.1706V44.0938Z" stroke="#59738C" stroke-width="1.6" stroke-miterlimit="10" stroke-linecap="round" stroke-linejoin="round"/>
<path d="M36.7892 69.0641H6.8262C5.04032 69.0641 3.55209 67.5538 3.55209 65.7415H40.2617C40.1625 67.5538 38.6743 69.0641 36.7892 69.0641Z" stroke="#59738C" stroke-width="1.6" stroke-miterlimit="10" stroke-linecap="round" stroke-linejoin="round"/>
<path d="M21.9072 56.1759C22.6196 56.1759 23.197 55.5899 23.197 54.867C23.197 54.1441 22.6196 53.5581 21.9072 53.5581C21.1949 53.5581 20.6174 54.1441 20.6174 54.867C20.6174 55.5899 21.1949 56.1759 21.9072 56.1759Z" stroke="#59738C" stroke-width="1.6" stroke-miterlimit="10" stroke-linecap="round" stroke-linejoin="round"/>
<path d="M39.3201 62.8214H42.0461V47.3157C42.0461 42.382 38.0775 38.3546 33.2159 38.3546L30.8045 38.3435" stroke="#59738C" stroke-width="1.6" stroke-miterlimit="10" stroke-linecap="round" stroke-linejoin="round"/>
</svg>
